<?xml version="1.0" standalone="no"?>
<!DOCTYPE svg PUBLIC "-//W3C//DTD SVG 20010904//EN"
 "http://www.w3.org/TR/2001/REC-SVG-20010904/DTD/svg10.dtd">
<svg version="1.0" xmlns="http://www.w3.org/2000/svg"
 width="670.000000pt" height="373.000000pt" viewBox="0 0 670.000000 373.000000"
 preserveAspectRatio="xMidYMid meet">

<g transform="translate(0.000000,373.000000) scale(0.100000,-0.100000)"
fill="#000000" stroke="none">
<path d="M3200 3720 c-156 -12 -326 -50 -488 -109 -327 -121 -641 -353 -845
-624 -181 -241 -310 -550 -362 -867 -28 -175 -16 -463 29 -665 54 -246 184
-516 355 -740 78 -102 264 -277 391 -368 259 -185 603 -314 900 -337 137 -11
372 -3 465 16 237 46 339 80 520 171 400 201 699 511 881 913 93 206 138 378
155 600 28 348 -31 657 -184 972 -182 374 -465 656 -851 850 -290 146 -632
212 -966 188z m-195 -1149 c181 -182 337 -331 345 -331 8 0 168 153 356 341
297 297 344 340 360 331 11 -6 93 -85 184 -177 l164 -166 -348 -348 c-192
-192 -347 -354 -345 -360 2 -6 158 -165 346 -354 l343 -343 -175 -177 c-139
-140 -179 -176 -191 -169 -9 5 -166 158 -349 341 -183 182 -338 331 -345 331
-7 0 -164 -153 -350 -340 -186 -187 -344 -340 -351 -340 -7 0 -91 79 -187 176
l-174 176 346 347 c190 190 346 351 346 356 0 5 -156 166 -347 357 l-347 347
177 176 c146 144 181 174 195 166 9 -5 165 -159 347 -340z"/>
</g>
</svg>
