<?xml version="1.0" standalone="no"?>
<!DOCTYPE svg PUBLIC "-//W3C//DTD SVG 20010904//EN"
 "http://www.w3.org/TR/2001/REC-SVG-20010904/DTD/svg10.dtd">
<svg version="1.0" xmlns="http://www.w3.org/2000/svg"
 width="500.000000pt" height="500.000000pt" viewBox="0 0 500.000000 500.000000"
 preserveAspectRatio="xMidYMid meet">

<g transform="translate(0.000000,500.000000) scale(0.100000,-0.100000)"
fill="#000000" stroke="none">
<path d="M2229 4979 c-210 -17 -516 -100 -751 -204 -477 -209 -916 -616 -1164
-1077 -139 -258 -223 -501 -280 -813 -20 -107 -26 -448 -13 -627 23 -288 123
-622 277 -921 211 -411 565 -776 981 -1012 275 -155 633 -271 943 -304 144
-16 457 -14 595 4 716 94 1347 486 1757 1093 86 127 206 364 265 523 184 497
201 1064 47 1576 -259 861 -966 1519 -1846 1718 -225 51 -528 68 -811 44z
m1162 -1439 c96 -27 154 -104 153 -205 0 -102 -56 -178 -149 -205 -29 -8 -280
-10 -922 -8 l-881 3 -44 30 c-63 44 -101 122 -94 193 5 60 43 133 82 158 65
43 58 43 959 44 547 0 873 -4 896 -10z m34 -849 c128 -58 164 -223 72 -328
-68 -77 -5 -73 -1000 -73 -859 0 -889 1 -926 19 -158 81 -159 298 -2 381 35
18 71 19 926 19 840 1 892 0 930 -18z m27 -846 c129 -92 124 -283 -10 -362
l-47 -28 -860 -3 c-473 -2 -879 0 -901 3 -123 18 -208 150 -173 273 15 55 81
126 131 141 20 6 376 9 925 8 l891 -2 44 -30z"/>
</g>
</svg>
